# Blender v2.77 (sub 0) OBJ File: 'Track.blend'
# www.blender.org
mtllib tire_stack.mtl
o Tire_Stack_Cylinder
v 0.000000 -0.004592 -0.500000
v 0.000000 1.312526 -0.406133
v 0.293893 -0.004592 -0.404509
v 0.238719 1.312526 -0.328569
v 0.475528 -0.004592 -0.154508
v 0.386256 1.312526 -0.125502
v 0.475528 -0.004592 0.154509
v 0.386256 1.312526 0.125502
v 0.293893 -0.004592 0.404509
v 0.238719 1.312526 0.328569
v -0.000000 -0.004592 0.500000
v -0.000000 1.312526 0.406133
v -0.293893 -0.004592 0.404508
v -0.238719 1.312526 0.328569
v -0.475528 -0.004592 0.154509
v -0.386256 1.312526 0.125502
v -0.475528 -0.004592 -0.154509
v -0.386256 1.312526 -0.125502
v -0.293893 -0.004592 -0.404509
v -0.238719 1.312526 -0.328569
v 0.000000 1.190571 -0.500000
v 0.293893 1.190571 -0.404509
v 0.475528 1.190571 -0.154508
v 0.475528 1.190571 0.154509
v 0.293893 1.190571 0.404509
v -0.000000 1.190571 0.500000
v -0.293893 1.190571 0.404508
v -0.475528 1.190571 0.154509
v -0.475528 1.190571 -0.154509
v -0.293893 1.190571 -0.404509
v 0.000000 -0.004592 -0.500000
v 0.293893 -0.004592 -0.404509
v 0.238719 1.312526 -0.328569
v 0.000000 1.312526 -0.406133
v 0.475528 -0.004592 -0.154508
v 0.386256 1.312526 -0.125502
v 0.475528 -0.004592 0.154509
v 0.386256 1.312526 0.125502
v 0.293893 -0.004592 0.404509
v 0.238719 1.312526 0.328569
v -0.000000 -0.004592 0.500000
v -0.000000 1.312526 0.406133
v -0.293893 -0.004592 0.404508
v -0.238719 1.312526 0.328569
v -0.475528 -0.004592 0.154509
v -0.386256 1.312526 0.125502
v -0.475528 -0.004592 -0.154509
v -0.386256 1.312526 -0.125502
v -0.293893 -0.004592 -0.404509
v -0.238719 1.312526 -0.328569
v -0.293893 1.190571 -0.404509
v 0.000000 1.190571 -0.500000
v -0.475528 1.190571 -0.154509
v -0.475528 1.190571 0.154509
v -0.293893 1.190571 0.404508
v -0.000000 1.190571 0.500000
v 0.293893 1.190571 0.404509
v 0.475528 1.190571 0.154509
v 0.475528 1.190571 -0.154508
v 0.293893 1.190571 -0.404509
vt 0.1816 0.9658
vt 0.2592 0.9101
vt 0.2772 0.9348
vt 0.3363 0.8534
vt 0.3072 0.8440
vt 0.3363 0.7529
vt 0.3072 0.7624
vt 0.2772 0.6716
vt 0.2592 0.6963
vt 0.1816 0.6405
vt 0.1816 0.6711
vt 0.0860 0.6716
vt 0.1039 0.6963
vt 0.0269 0.7529
vt 0.0559 0.7624
vt 0.0269 0.8534
vt 0.0559 0.8440
vt 0.3072 0.7624
vt 0.3072 0.8440
vt 0.1039 0.9101
vt 0.0860 0.9348
vt 0.6536 0.7501
vt 0.3442 0.7501
vt 0.4033 0.9320
vt 0.6000 0.6088
vt 0.5000 0.0113
vt 0.6000 0.0113
vt 0.7000 0.6088
vt 0.7000 0.0113
vt 0.8000 0.6088
vt 0.8000 0.0113
vt 0.9000 0.6088
vt 0.9000 0.0113
vt 1.0000 0.6088
vt 1.0000 0.0113
vt 0.1000 0.6088
vt 0.0000 0.0113
vt 0.1000 0.0113
vt 0.2000 0.6088
vt 0.2000 0.0113
vt 0.3000 0.6088
vt 0.3000 0.0113
vt 0.4000 0.6088
vt 0.4000 0.0113
vt 0.5000 0.6088
vt 0.1816 0.9353
vt 0.0559 0.8440
vt 0.2592 0.9101
vt 0.1816 0.9353
vt 0.1039 0.9101
vt 0.0559 0.7624
vt 0.1039 0.6963
vt 0.1816 0.6711
vt 0.2592 0.6963
vt 0.4989 0.9630
vt 0.5945 0.9320
vt 0.6536 0.8506
vt 0.5945 0.6688
vt 0.4989 0.6377
vt 0.4033 0.6688
vt 0.3442 0.8506
vt 0.0000 0.6088
vn 0.0000 0.6099 -0.7924
vn 0.4658 0.6099 -0.6411
vn 0.7537 0.6099 -0.2449
vn 0.7537 0.6099 0.2449
vn 0.4658 0.6099 0.6411
vn 0.0000 0.6099 0.7924
vn -0.4658 0.6099 0.6411
vn -0.7537 0.6099 0.2449
vn -0.7537 0.6099 -0.2449
vn 0.0000 1.0000 0.0000
vn -0.4658 0.6099 -0.6411
vn 0.0000 -1.0000 0.0000
vn -0.5878 0.0000 -0.8090
vn 0.0000 0.0000 -1.0000
vn -0.9510 0.0000 -0.3090
vn -0.9510 0.0000 0.3090
vn -0.5878 0.0000 0.8090
vn 0.0000 0.0000 1.0000
vn 0.5878 0.0000 0.8090
vn 0.9510 0.0000 0.3090
vn 0.9510 0.0000 -0.3090
vn 0.5878 0.0000 -0.8090
usemtl Material
s 1
f 52/1/1 33/2/2 22/3/2
f 33/2/2 23/4/3 22/3/2
f 36/5/3 24/6/4 23/4/3
f 38/7/4 25/8/5 24/6/4
f 40/9/5 26/10/6 25/8/5
f 42/11/6 27/12/7 26/10/6
f 44/13/7 28/14/8 27/12/7
f 46/15/8 29/16/9 28/14/8
f 18/17/10 8/18/10 6/19/10
f 29/16/9 20/20/11 30/21/11
f 20/20/11 52/1/1 30/21/11
f 37/22/12 45/23/12 49/24/12
f 51/25/13 1/26/14 19/27/13
f 53/28/15 19/27/13 17/29/15
f 54/30/16 17/29/15 15/31/16
f 55/32/17 15/31/16 13/33/17
f 56/34/18 13/33/17 11/35/18
f 57/36/19 11/37/18 9/38/19
f 58/39/20 9/38/19 7/40/20
f 59/41/21 7/40/20 5/42/21
f 60/43/22 5/42/21 3/44/22
f 21/45/14 3/44/22 1/26/14
f 52/1/1 34/46/1 33/2/2
f 33/2/2 36/5/3 23/4/3
f 36/5/3 38/7/4 24/6/4
f 38/7/4 40/9/5 25/8/5
f 40/9/5 42/11/6 26/10/6
f 42/11/6 44/13/7 27/12/7
f 44/13/7 46/15/8 28/14/8
f 46/15/8 48/47/9 29/16/9
f 6/19/10 4/48/10 2/49/10
f 2/49/10 50/50/10 18/17/10
f 18/17/10 16/51/10 14/52/10
f 14/52/10 12/53/10 10/54/10
f 10/54/10 8/18/10 18/17/10
f 6/19/10 2/49/10 18/17/10
f 18/17/10 14/52/10 10/54/10
f 29/16/9 48/47/9 20/20/11
f 20/20/11 34/46/1 52/1/1
f 49/24/12 31/55/12 32/56/12
f 32/56/12 35/57/12 37/22/12
f 37/22/12 39/58/12 45/23/12
f 41/59/12 43/60/12 45/23/12
f 45/23/12 47/61/12 49/24/12
f 49/24/12 32/56/12 37/22/12
f 39/58/12 41/59/12 45/23/12
f 51/25/13 21/45/14 1/26/14
f 53/28/15 51/25/13 19/27/13
f 54/30/16 53/28/15 17/29/15
f 55/32/17 54/30/16 15/31/16
f 56/34/18 55/32/17 13/33/17
f 57/36/19 56/62/18 11/37/18
f 58/39/20 57/36/19 9/38/19
f 59/41/21 58/39/20 7/40/20
f 60/43/22 59/41/21 5/42/21
f 21/45/14 60/43/22 3/44/22
